<?xml version="1.0" encoding="utf-8"?>
<!-- Generator: Adobe Illustrator 28.1.0, SVG Export Plug-In . SVG Version: 6.00 Build 0)  -->
<svg version="1.1" id="Layer_2" xmlns="http://www.w3.org/2000/svg" xmlns:xlink="http://www.w3.org/1999/xlink" x="0px" y="0px"
	 viewBox="0 0 1156.08 526.08" enable-background="new 0 0 1156.08 526.08" xml:space="preserve">
	<path fill="#ffe400" d="M17.62,102.47c17.16,13.45,34.33,26.91,51.49,40.36c41.22,32.31,82.45,64.62,123.67,96.93
		c49.88,39.09,99.76,78.19,149.64,117.28c43.13,33.8,86.26,67.61,129.39,101.41c20.97,16.44,41.94,32.89,62.92,49.32
		c0.3,0.23,0.59,0.47,0.89,0.7c5.43,5.85,11.87,9.99,19.31,12.41c7.15,3.76,14.86,5.48,23.12,5.17c5.32-0.71,10.63-1.43,15.95-2.14
		c10.16-2.85,18.99-7.99,26.48-15.43c17.16-13.45,34.33-26.91,51.49-40.36c41.22-32.31,82.45-64.62,123.67-96.93
		c49.88-39.09,99.76-78.19,149.64-117.28c43.13-33.8,86.26-67.61,129.39-101.41c20.96-16.43,42.27-32.5,62.92-49.32
		c0.29-0.24,0.59-0.47,0.89-0.7c5.85-5.43,9.99-11.87,12.41-19.31c3.76-7.15,5.48-14.86,5.17-23.12c0-14.72-6.54-32.29-17.57-42.43
		c-11.43-10.5-26.45-18.29-42.43-17.57c-5.32,0.71-10.63,1.43-15.95,2.14c-10.16,2.85-18.99,7.99-26.48,15.43
		c-17.16,13.45-34.33,26.91-51.49,40.36c-41.22,32.31-82.45,64.62-123.67,96.93C828.58,194,778.7,233.1,728.82,272.19
		C685.69,306,642.56,339.8,599.43,373.6c-20.97,16.44-42.12,32.67-62.92,49.32c-0.29,0.24-0.59,0.47-0.89,0.7
		c28.28,0,56.57,0,84.85,0c-17.16-13.45-34.33-26.91-51.49-40.36c-41.22-32.31-82.45-64.62-123.67-96.93
		c-49.88-39.09-99.76-78.19-149.64-117.28c-43.13-33.8-86.26-67.61-129.39-101.41c-20.97-16.44-41.94-32.89-62.92-49.32
		c-0.3-0.23-0.59-0.47-0.89-0.7C97.04,11.77,90.6,7.63,83.16,5.21c-7.15-3.76-14.86-5.48-23.12-5.17
		c-14.72,0-32.29,6.54-42.43,17.57C7.12,29.05-0.67,44.07,0.05,60.05C0.71,74.82,5.41,92.9,17.62,102.47L17.62,102.47z"/>
</svg>
