<?xml version="1.0" encoding="utf-8"?>
<!-- Generator: Adobe Illustrator 28.1.0, SVG Export Plug-In . SVG Version: 6.00 Build 0)  -->
<svg version="1.1" id="Layer_1" xmlns="http://www.w3.org/2000/svg" xmlns:xlink="http://www.w3.org/1999/xlink" x="0px" y="0px"
	 viewBox="0 0 24 24" enable-background="new 0 0 24 24" xml:space="preserve">
<path fill="#FFE400" d="M19,0H5C2.24,0,0,2.24,0,5v14c0,2.76,2.24,5,5,5h14c2.76,0,5-2.24,5-5V5C24,2.24,21.76,0,19,0z M8,19H5V8h3
	V19z M6.5,6.73c-0.97,0-1.75-0.79-1.75-1.76S5.53,3.2,6.5,3.2s1.75,0.79,1.75,1.76S7.47,6.73,6.5,6.73z M20,19h-3v-5.6
	c0-3.37-4-3.11-4,0V19h-3V8h3v1.77c1.4-2.59,7-2.78,7,2.48V19z"/>
</svg>
