<?xml version="1.0" encoding="utf-8"?>
<!-- Generator: Adobe Illustrator 28.1.0, SVG Export Plug-In . SVG Version: 6.00 Build 0)  -->
<svg version="1.1" id="Layer_2" xmlns="http://www.w3.org/2000/svg" xmlns:xlink="http://www.w3.org/1999/xlink" x="0px" y="0px"
	 viewBox="0 0 1026.12 1156.08" enable-background="new 0 0 1026.12 1156.08" xml:space="preserve">
<g>
	<g>
		<path fill="#000000" d="M602.51,1138.46c13.45-17.16,26.91-34.33,40.36-51.49c32.31-41.22,64.62-82.45,96.93-123.67
			c39.09-49.88,78.19-99.76,117.28-149.64c33.8-43.13,67.61-86.26,101.41-129.39c16.44-20.97,32.89-41.94,49.32-62.92
			c0.23-0.3,0.47-0.59,0.7-0.89c5.85-5.43,9.99-11.87,12.41-19.31c3.76-7.15,5.48-14.86,5.17-23.12
			c-0.71-5.32-1.43-10.63-2.14-15.95c-2.85-10.16-7.99-18.99-15.43-26.48c-13.45-17.16-26.91-34.33-40.36-51.49
			c-32.31-41.22-64.62-82.45-96.93-123.67c-39.09-49.88-78.19-99.76-117.28-149.64c-33.8-43.13-67.61-86.26-101.41-129.39
			c-16.43-20.96-32.5-42.27-49.32-62.92c-0.24-0.29-0.47-0.59-0.7-0.89c-5.43-5.85-11.87-9.99-19.31-12.41
			c-7.15-3.76-14.86-5.48-23.12-5.17c-14.72,0-32.29,6.54-42.43,17.57c-10.5,11.43-18.29,26.45-17.57,42.43
			c0.71,5.32,1.43,10.63,2.14,15.95c2.85,10.16,7.99,18.99,15.43,26.48c13.45,17.16,26.91,34.33,40.36,51.49
			c32.31,41.22,64.62,82.45,96.93,123.67c39.09,49.88,78.19,99.76,117.28,149.64c33.8,43.13,67.61,86.26,101.41,129.39
			c16.44,20.97,32.67,42.12,49.32,62.92c0.24,0.29,0.47,0.59,0.7,0.89c0-28.28,0-56.57,0-84.85
			c-13.45,17.16-26.91,34.33-40.36,51.49c-32.31,41.22-64.62,82.45-96.93,123.67c-39.09,49.88-78.19,99.76-117.28,149.64
			c-33.8,43.13-67.61,86.26-101.41,129.39c-16.44,20.97-32.89,41.94-49.32,62.92c-0.23,0.3-0.47,0.59-0.7,0.89
			c-5.85,5.43-9.99,11.87-12.41,19.31c-3.76,7.15-5.48,14.86-5.17,23.12c0,14.72,6.54,32.29,17.57,42.43
			c11.43,10.5,26.45,18.29,42.43,17.57C574.85,1155.37,592.94,1150.67,602.51,1138.46L602.51,1138.46z"/>
	</g>
</g>
<g>
	<g>
		<path fill="#000000" d="M60.04,637.92c7.85,0,15.71,0,23.56-0.01c21.37-0.01,42.75-0.01,64.12-0.02
			c31.47-0.01,62.94-0.02,94.41-0.03c38.54-0.01,77.08-0.02,115.61-0.04c42.22-0.01,84.43-0.03,126.65-0.04
			c42.45-0.01,84.9-0.03,127.35-0.04c39.74-0.01,79.48-0.02,119.22-0.04c33.58-0.01,67.16-0.02,100.73-0.03
			c24.13-0.01,48.27-0.01,72.4-0.02c11.39,0,22.78,0.08,34.16-0.01c0.49,0,0.99,0,1.48,0c15.39,0,31.54-6.69,42.43-17.57
			c10.41-10.41,18.24-27.48,17.57-42.43c-0.7-15.52-5.79-31.61-17.57-42.43c-11.74-10.77-26.17-17.58-42.43-17.57
			c-7.85,0-15.71,0-23.56,0.01c-21.37,0.01-42.75,0.01-64.12,0.02c-31.47,0.01-62.94,0.02-94.41,0.03
			c-38.54,0.01-77.08,0.02-115.61,0.04c-42.22,0.01-84.43,0.03-126.65,0.04c-42.45,0.01-84.9,0.03-127.35,0.04
			c-39.74,0.01-79.48,0.02-119.22,0.04c-33.58,0.01-67.16,0.02-100.73,0.03c-24.13,0.01-48.27,0.01-72.4,0.02
			c-11.39,0-22.78-0.08-34.16,0.01c-0.49,0-0.99,0-1.48,0c-15.39,0-31.54,6.69-42.43,17.57C7.21,545.9-0.63,562.97,0.04,577.92
			c0.7,15.52,5.79,31.61,17.57,42.43C29.35,631.12,43.78,637.92,60.04,637.92L60.04,637.92z"/>
	</g>
</g>
</svg>
